<svg width="17" height="20" viewBox="0 0 17 20" fill="none" xmlns="http://www.w3.org/2000/svg">
<path d="M15.0477 17.9942C15.6015 17.9942 16.0506 18.4432 16.0506 18.9971C16.0506 19.551 15.6015 20 15.0477 20H1.00712C0.453232 20 0.00421988 19.551 0.00421988 18.9971C0.00421988 18.4432 0.453232 17.9942 1.00712 17.9942H15.0477ZM10.0332 0.473611C10.8113 -0.183736 11.9585 -0.153546 12.7009 0.543814L15.4488 3.29175C16.217 4.02363 16.2484 5.23903 15.519 6.0096L6.49296 15.0357C6.16605 15.3598 5.73757 15.5617 5.27945 15.6073L1.09738 15.9885H1.00712C0.740543 15.99 0.484325 15.8853 0.29506 15.6976C0.0834856 15.4868 -0.0231331 15.1927 0.00421988 14.8953L0.435465 10.7132C0.481102 10.2551 0.682946 9.82659 1.00712 9.49968L10.0332 0.473611ZM8.02739 5.27748L2.38108 10.8837L2.1103 13.8823L5.11899 13.6015L10.7352 7.9853L8.02739 5.27748ZM11.3069 1.94787L9.35121 3.95366L12.039 6.64142L14.0448 4.68578L11.3069 1.94787Z" fill="white"/>
</svg>
