<svg width="10" height="18" viewBox="0 0 10 18" fill="none" xmlns="http://www.w3.org/2000/svg">
<g clip-path="url(#clip0_2021_1677)">
<path d="M0.625848 8.98901C0.625277 8.70912 0.726995 8.43787 0.913347 8.22235L7.16335 1.03494C7.60518 0.525526 8.39427 0.455805 8.92585 0.879217C9.45742 1.30263 9.53018 2.05884 9.08835 2.56826L3.48835 8.98901L8.88835 15.4098C9.09806 15.6572 9.19618 15.9746 9.16099 16.2916C9.1258 16.6086 8.9602 16.8991 8.70085 17.0988C8.44102 17.3206 8.0965 17.4285 7.75015 17.3967C7.4038 17.3649 7.08696 17.1961 6.87585 16.9311L0.838347 9.74368C0.681453 9.52197 0.606634 9.25626 0.625848 8.98901Z" fill="#444444"/>
</g>
<defs>
<clipPath id="clip0_2021_1677">
<rect width="10" height="18" fill="white"/>
</clipPath>
</defs>
</svg>
