<svg width="25" height="20" viewBox="0 0 25 20" fill="none" xmlns="http://www.w3.org/2000/svg">
<g clip-path="url(#clip0_2690_705)">
<path d="M22.6751 -0.000361518H10.4626C9.53756 0.00542125 8.64717 0.352672 7.96263 0.974908L7.83763 1.11241L0.337628 10.4624C-0.0782315 10.9793 -0.0178748 11.731 0.475128 12.1749L7.97513 19.0249C8.65967 19.6471 9.55006 19.9944 10.4751 20H22.6876C23.9531 20.0069 24.9864 18.9903 25.0001 17.7249V2.27491C24.9935 1.6649 24.7449 1.0825 24.3088 0.655845C23.8728 0.229192 23.2851 -0.00675859 22.6751 -0.000361518ZM22.5001 17.4999H10.4626C10.1528 17.4991 9.85438 17.3833 9.62513 17.1749L2.96263 11.1124L9.68763 2.77491C9.90755 2.59846 10.1807 2.50154 10.4626 2.49991H22.5001V17.4999Z" fill="#444444"/>
<path d="M11.6124 13.3872C11.8471 13.6239 12.1666 13.757 12.4999 13.757C12.8332 13.757 13.1527 13.6239 13.3874 13.3872L14.9999 11.7622L16.6124 13.3872C16.8471 13.6239 17.1666 13.757 17.4999 13.757C17.8332 13.757 18.1527 13.6239 18.3874 13.3872C18.6241 13.1525 18.7572 12.833 18.7572 12.4997C18.7572 12.1664 18.6241 11.847 18.3874 11.6122L16.7624 9.99974L18.3874 8.38724C18.8776 7.89709 18.8776 7.1024 18.3874 6.61224C17.8973 6.12209 17.1026 6.12209 16.6124 6.61224L14.9999 8.23724L13.3874 6.61224C12.8973 6.12209 12.1026 6.12209 11.6124 6.61224C11.1223 7.1024 11.1223 7.89709 11.6124 8.38724L13.2374 9.99974L11.6124 11.6122C11.3758 11.847 11.2427 12.1664 11.2427 12.4997C11.2427 12.833 11.3758 13.1525 11.6124 13.3872Z" fill="#444444"/>
</g>
<defs>
<clipPath id="clip0_2690_705">
<rect width="25" height="20" fill="white"/>
</clipPath>
</defs>
</svg>
