<?xml version="1.0" encoding="UTF-8"?>
<svg width="20px" height="20px" viewBox="0 0 20 20" version="1.1" xmlns="http://www.w3.org/2000/svg" xmlns:xlink="http://www.w3.org/1999/xlink">
    <title>x_red</title>
    <g id="Page-1" stroke="none" stroke-width="1" fill="none" fill-rule="evenodd">
        <g id="x_red" fill="#BC3B51" fill-rule="nonzero">
            <path d="M10,0 C4.4771525,0 0,4.4771525 0,10 C0,15.5228475 4.4771525,20 10,20 C15.5228475,20 20,15.5228475 20,10 C20,7.3478351 18.9464316,4.80429597 17.0710678,2.92893219 C15.195704,1.0535684 12.6521649,0 10,0 Z M10,18 C5.581722,18 2,14.418278 2,10 C2,5.581722 5.581722,2 10,2 C14.418278,2 18,5.581722 18,10 C18,12.1217319 17.1571453,14.1565632 15.6568542,15.6568542 C14.1565632,17.1571453 12.1217319,18 10,18 Z" id="Shape"></path>
            <path d="M12.71,7.29 C12.5222334,7.10068735 12.2666375,6.99420168 12,6.99420168 C11.7333625,6.99420168 11.4777666,7.10068735 11.29,7.29 L10,8.59 L8.71,7.29 C8.31787783,6.89787783 7.68212217,6.89787783 7.29,7.29 C6.89787783,7.68212217 6.89787783,8.31787783 7.29,8.71 L8.59,10 L7.29,11.29 C7.10068735,11.4777666 6.99420168,11.7333625 6.99420168,12 C6.99420168,12.2666375 7.10068735,12.5222334 7.29,12.71 C7.4777666,12.8993127 7.73336246,13.0057983 8,13.0057983 C8.26663754,13.0057983 8.5222334,12.8993127 8.71,12.71 L10,11.41 L11.29,12.71 C11.4777666,12.8993127 11.7333625,13.0057983 12,13.0057983 C12.2666375,13.0057983 12.5222334,12.8993127 12.71,12.71 C12.8993127,12.5222334 13.0057983,12.2666375 13.0057983,12 C13.0057983,11.7333625 12.8993127,11.4777666 12.71,11.29 L11.41,10 L12.71,8.71 C12.8993127,8.5222334 13.0057983,8.26663754 13.0057983,8 C13.0057983,7.73336246 12.8993127,7.4777666 12.71,7.29 L12.71,7.29 Z" id="Path"></path>
        </g>
    </g>
</svg>