<?xml version="1.0" encoding="UTF-8"?>
<svg width="21px" height="13px" viewBox="0 0 21 13" version="1.1" xmlns="http://www.w3.org/2000/svg" xmlns:xlink="http://www.w3.org/1999/xlink">
    <title>done-all-outline</title>
    <g id="Page-1" stroke="none" stroke-width="1" fill="none" fill-rule="evenodd">
        <g id="done-all-outline" fill="#2870ED" fill-rule="nonzero">
            <path d="M14.62,1.21 C14.4109067,1.04446062 14.1443521,0.969299834 13.87958,1.00122271 C13.614808,1.03314558 13.3737561,1.16950714 13.21,1.38 L6.21,10.38 L2.78,6.2 C2.56094067,5.90840172 2.20050185,5.75918908 1.83943332,5.81062895 C1.47836479,5.86206882 1.17393579,6.10600231 1.04502453,6.44717445 C0.916113269,6.78834659 0.983166412,7.17264392 1.22,7.45 L5.39,12.63 C5.58063005,12.8649915 5.86741159,13.0009979 6.17,13 C6.49171395,13.0143668 6.80065919,12.8729219 7,12.62 L14.83,2.62 C14.9912538,2.40593206 15.0598313,2.13609491 15.0203508,1.87101159 C14.9808703,1.60592827 14.8366364,1.36778642 14.62,1.21 Z" id="Path"></path>
            <path d="M19.62,1.21 C19.4109067,1.04446062 19.1443521,0.969299834 18.87958,1.00122271 C18.614808,1.03314558 18.3737561,1.16950714 18.21,1.38 L11.21,10.38 L10.6,9.63 L9.34,11.25 L10.44,12.62 C10.6306301,12.8549915 10.9174116,12.9910289 11.22,12.9900058 C11.524272,12.9885972 11.8113526,12.8487374 12,12.61 L19.83,2.61 C19.9880723,2.39659549 20.0547649,2.12907802 20.0153699,1.86644452 C19.9759749,1.60381102 19.8337281,1.36763445 19.62,1.21 L19.62,1.21 Z" id="Path"></path>
            <path d="M6.71,8.06 L8,6.44 L7.8,6.2 C7.64046734,5.97897966 7.3976246,5.832661 7.1276706,5.7949052 C6.8577166,5.75714939 6.58404895,5.83122883 6.37,6 C6.16252029,6.16667319 6.0300378,6.4091759 6.00188444,6.67381749 C5.97373108,6.93845909 6.0522295,7.20340657 6.22,7.41 L6.71,8.06 Z" id="Path"></path>
        </g>
    </g>
</svg>