<svg width="18" height="12" viewBox="0 0 18 12" fill="none" xmlns="http://www.w3.org/2000/svg">
<g clip-path="url(#clip0_2125_529)">
<path d="M10.05 10C10.5747 10 11 10.4253 11 10.95V11.05C11 11.5747 10.5747 12 10.05 12H0.95C0.42533 12 0 11.5747 0 11.05V10.95C0 10.4253 0.42533 10 0.95 10H10.05ZM17.05 5C17.5747 5 18 5.42533 18 5.95V6.05C18 6.57467 17.5747 7 17.05 7H0.95C0.42533 7 0 6.57467 0 6.05V5.95C0 5.42533 0.42533 5 0.95 5H17.05ZM17.05 0C17.5747 0 18 0.42533 18 0.95V1.05C18 1.57467 17.5747 2 17.05 2H0.95C0.42533 2 0 1.57467 0 1.05V0.95C0 0.42533 0.42533 0 0.95 0H17.05Z" fill="#2870ED"/>
</g>
<defs>
<clipPath id="clip0_2125_529">
<rect width="18" height="12" fill="white"/>
</clipPath>
</defs>
</svg>
