<svg width="14" height="8" viewBox="0 0 14 8" fill="none" xmlns="http://www.w3.org/2000/svg">
<g clip-path="url(#clip0_2125_542)">
<path d="M6.99211 6.99953C6.78802 6.99993 6.59024 6.92873 6.43309 6.79828L1.19227 2.42328C0.820821 2.114 0.769982 1.56163 1.07872 1.18953C1.38746 0.817427 1.93886 0.766499 2.31031 1.07578L6.99211 4.99578L11.6739 1.21578C11.8544 1.06898 12.0858 1.00029 12.3169 1.02493C12.5481 1.04956 12.7599 1.16548 12.9055 1.34703C13.0672 1.52891 13.1459 1.77007 13.1227 2.01252C13.0995 2.25496 12.9765 2.47675 12.7832 2.62453L7.5424 6.85078C7.38073 6.96061 7.18698 7.01298 6.99211 6.99953Z" fill="#444444"/>
</g>
<defs>
<clipPath id="clip0_2125_542">
<rect width="14" height="7.875" fill="white"/>
</clipPath>
</defs>
</svg>
