<svg width="21" height="19" viewBox="0 0 21 19" fill="none" xmlns="http://www.w3.org/2000/svg">
<g clip-path="url(#clip0_2120_547)">
<path d="M2.70996 0.289964C2.45631 0.0363055 2.08659 -0.0627594 1.74009 0.0300861C1.39358 0.122932 1.12293 0.393582 1.03009 0.740086C0.937241 1.08659 1.03631 1.45631 1.28996 1.70996L6.91996 7.33996C6.18857 8.70056 6.43562 10.3797 7.5279 11.472C8.62018 12.5643 10.2994 12.8114 11.66 12.08L17.29 17.71C17.4777 17.8993 17.7333 18.0058 18 18.0058C18.2666 18.0058 18.5222 17.8993 18.71 17.71C18.8993 17.5222 19.0058 17.2666 19.0058 17C19.0058 16.7333 18.8993 16.4777 18.71 16.29L2.70996 0.289964ZM9.99996 10.5C9.17154 10.5 8.49996 9.82839 8.49996 8.99996V8.92996L10.06 10.49L9.99996 10.5Z" fill="#444444"/>
<path d="M10.2199 14C5.91995 14.1 3.09995 10.41 2.21995 9C2.84642 8.00069 3.59931 7.08646 4.45995 6.28L2.99995 4.87C1.87127 5.93347 0.904355 7.15643 0.129946 8.5C-0.0486865 8.8094 -0.0486865 9.19059 0.129946 9.5C0.759946 10.59 4.12995 16 10.0199 16H10.2699C11.3775 15.9671 12.4707 15.7404 13.4999 15.33L11.9199 13.75C11.3643 13.8962 10.7941 13.98 10.2199 14Z" fill="#444444"/>
<path d="M19.87 8.49999C19.23 7.38999 15.7 1.81999 9.73 1.99999C8.62245 2.03285 7.52924 2.25961 6.5 2.66999L8.08 4.24999C8.63563 4.10382 9.20581 4.01997 9.78 3.99999C14.07 3.88999 16.89 7.58999 17.78 8.99999C17.1381 10.0023 16.3682 10.9167 15.49 11.72L17 13.13C18.1428 12.0693 19.1234 10.8462 19.91 9.49999C20.0764 9.18349 20.0612 8.8022 19.87 8.49999Z" fill="#444444"/>
</g>
<defs>
<clipPath id="clip0_2120_547">
<rect width="21" height="19" fill="white"/>
</clipPath>
</defs>
</svg>
