<svg width="20" height="14" viewBox="0 0 20 14" fill="none" xmlns="http://www.w3.org/2000/svg">
<path d="M19.874 6.50427C19.234 5.39427 15.714 -0.175734 9.73397 0.00426608C4.20397 0.144266 1.00397 5.00427 0.133975 6.50427C-0.0446582 6.81367 -0.0446582 7.19487 0.133975 7.50427C0.763975 8.59427 4.13398 14.0043 10.024 14.0043H10.274C15.804 13.8643 19.014 9.00427 19.874 7.50427C20.0526 7.19487 20.0526 6.81367 19.874 6.50427ZM10.224 12.0043C5.91398 12.1043 3.10397 8.41427 2.22397 7.00427C3.22397 5.39427 5.83397 2.10427 9.83397 2.00427C14.124 1.89427 16.944 5.59427 17.834 7.00427C16.804 8.61427 14.224 11.9043 10.224 12.0043Z" fill="#444444"/>
<path d="M10.004 3.50427C8.07103 3.50427 6.50403 5.07128 6.50403 7.00427C6.50403 8.93727 8.07103 10.5043 10.004 10.5043C11.937 10.5043 13.504 8.93727 13.504 7.00427C13.504 5.07128 11.937 3.50427 10.004 3.50427ZM10.004 8.50427C9.1756 8.50427 8.50403 7.8327 8.50403 7.00427C8.50403 6.17585 9.1756 5.50427 10.004 5.50427C10.8325 5.50427 11.504 6.17585 11.504 7.00427C11.504 7.8327 10.8325 8.50427 10.004 8.50427Z" fill="#444444"/>
</svg>
