<svg width="16" height="18" viewBox="0 0 16 18" fill="none" xmlns="http://www.w3.org/2000/svg">
<path d="M9.90208 18C9.68571 18 9.47518 17.9298 9.30208 17.8L5.30208 14.75C5.05404 14.5591 4.90971 14.263 4.91208 13.95V10.68L0.112083 1.46001C-0.0486892 1.14968 -0.0357764 0.777927 0.146141 0.479501C0.328059 0.181074 0.652581 -0.000721245 1.00208 2.15084e-06H15.0021C15.3552 2.15084e-06 15.682 0.186307 15.8621 0.490006C16.0407 0.799408 16.0407 1.18061 15.8621 1.49001L10.8621 10.7V17C10.8647 17.3802 10.6516 17.7289 10.3121 17.9C10.1841 17.9621 10.0443 17.9962 9.90208 18ZM6.90208 13.46L8.90208 14.99V10.44C8.90146 10.2876 8.93566 10.1371 9.00208 10L13.3021 2.00001H2.64208L6.77208 10C6.845 10.1423 6.88273 10.3001 6.88208 10.46L6.90208 13.46Z" fill="#444444"/>
</svg>
