<?xml version="1.0" encoding="UTF-8"?>
<svg width="26px" height="26px" viewBox="0 0 26 26" version="1.1" xmlns="http://www.w3.org/2000/svg" xmlns:xlink="http://www.w3.org/1999/xlink">
    <title>flik-ico</title>
    <g id="Page-1" stroke="none" stroke-width="1" fill="none" fill-rule="evenodd">
        <g id="flik-ico" fill="#FFFFFF" fill-rule="nonzero">
            <g id="Group-6">
                <path d="M13,0 C5.82029825,0 0,5.82029825 0,13 C0,20.1797017 5.82029825,26 13,26 C20.1797017,26 26,20.1797017 26,13 C26,9.55218563 24.6303611,6.24558476 22.1923882,3.80761184 C19.7544152,1.36963892 16.4478144,0 13,0 Z M13,23.4 C7.2562386,23.4 2.6,18.7437614 2.6,13 C2.6,7.2562386 7.2562386,2.6 13,2.6 C18.7437614,2.6 23.4,7.2562386 23.4,13 C23.4,15.7582515 22.3042889,18.4035322 20.3539105,20.3539105 C18.4035322,22.3042889 15.7582515,23.4 13,23.4 Z" id="Shape"></path>
                <g id="flik_logo" transform="translate(7.800000, 6.500000)">
                    <path d="M3.1228089,3.60704567 L3.1228089,4.64634307 L0.231034694,4.64634307 L0.231034694,5.95038897 L3.1228089,5.95038897 L3.1228089,7.46731585 L0.230899623,7.46731585 L0.230899623,8.77139354 L3.1228089,8.77139354 L3.1228089,14.0961828 L4.72880365,14.0961828 L4.72880365,8.77139354 L8.31962166,8.77139354 L8.31962166,7.46731585 L4.72880365,7.46731585 L4.72880365,5.95038897 L8.31978851,5.95038897 L8.31978851,4.64634307 L4.72880365,4.64634307 L4.72880365,3.72062509 C4.72880365,2.28409766 5.23903309,1.79277032 6.67552079,1.79277032 C7.22670222,1.80025187 7.77645546,1.85080881 8.31978851,1.94397914 L8.31978851,0.526361751 C7.78023366,0.403463492 7.22885796,0.340114778 6.67552079,0.337452038 C4.3321457,0.337452038 3.1228089,1.45262002 3.1228089,3.60704567 Z" id="Path"></path>
                </g>
            </g>
        </g>
    </g>
</svg>