<svg width="177" height="32" viewBox="0 0 177 32" fill="none" xmlns="http://www.w3.org/2000/svg">
<g clip-path="url(#clip0_2125_591)">
<path d="M7.01012 10.7425C11.0523 10.7425 13.371 11.1913 13.371 13.019V14.7828H7.44873C5.69411 14.7828 5.00473 15.3279 5.00473 16.354C5.00473 19.1437 14.4364 18.6626 14.4364 25.5244C14.4364 28.7953 12.4624 31.585 6.72798 31.585C3.12462 31.585 0.147705 31.0717 0.147705 29.3083L0.147705 27.5447H6.94738C8.73357 27.5447 9.61098 26.9674 9.61098 25.7811C9.61098 22.7671 0.210449 23.2159 0.210449 16.2256C0.210449 13.1472 2.34113 10.7425 7.01012 10.7425Z" fill="white"/>
<path d="M21.1101 14.8469V20.4584H24.5256C26.4369 20.4584 27.7218 19.8488 27.7218 17.6366C27.7218 15.4881 26.4369 14.8469 24.5256 14.8469H21.1101ZM16.5664 12.6342C16.5664 11.5118 17.0366 10.9027 18.1959 10.9027H24.839C29.5391 10.9027 32.1713 13.6282 32.1713 17.7006C32.1713 21.7087 29.5391 24.37 24.839 24.37H21.1101V31.4245H16.5664L16.5664 12.6342Z" fill="white"/>
<path d="M37.811 22.7989H41.7279L39.8478 15.6485H39.6911L37.811 22.7989ZM41.9473 10.8386C42.762 10.8386 43.138 10.9349 43.3261 11.6401L48.4335 30.655C48.4962 30.9435 48.5276 31.2322 48.5276 31.4246L44.924 31.4246C44.1094 31.4246 43.8586 31.3925 43.6707 30.6871L42.5426 26.3262H37.0591L35.9309 30.6871C35.7743 31.3925 35.5237 31.4246 34.7088 31.4246H31.1055C31.1055 31.2322 31.1366 30.9758 31.1994 30.655L36.3384 11.6401C36.5264 10.9349 36.9022 10.8386 37.7171 10.8386H41.9473Z" fill="white"/>
<path d="M54.6058 14.8469V20.2338H57.9899C59.9014 20.2338 61.2174 19.5284 61.2174 17.5083C61.2174 15.5521 59.9014 14.8469 57.9899 14.8469H54.6058ZM50.0623 12.6342C50.0623 11.5118 50.5322 10.9027 51.6916 10.9027H58.3032C63.0034 10.9027 65.6356 13.5642 65.6356 17.5083C65.6356 20.362 64.2569 22.4461 61.6248 23.4082L66.2623 30.5588C66.4189 30.8475 66.5442 31.136 66.5442 31.4245L62.4707 31.4245C61.6248 31.4245 61.3113 31.3603 60.7788 30.4948L56.9245 24.1457H54.6058V31.4245H50.0623V12.6342Z" fill="white"/>
<path d="M72.6854 20.394L78.5135 11.7685C78.9837 11.0309 79.2343 10.9027 79.8297 10.9027L84.0285 10.9027C84.0285 11.1912 83.9658 11.4479 83.7466 11.7685L77.2916 20.843L84.0599 30.5588C84.2166 30.8152 84.3418 31.1358 84.3418 31.4246L80.3311 31.4246C79.4537 31.4246 79.1717 31.3603 78.6076 30.4948L72.6854 21.9654V31.4246H68.1418V12.6661C68.1418 11.5119 68.643 10.9027 69.8025 10.9027H72.6854V20.394Z" fill="white"/>
<path d="M91.2036 22.7989H95.1205L93.2404 15.6485H93.0837L91.2036 22.7989ZM95.3399 10.8386C96.1545 10.8386 96.5306 10.9349 96.7186 11.6401L101.826 30.655C101.889 30.9435 101.92 31.2322 101.92 31.4246L98.3166 31.4246C97.5019 31.4246 97.2512 31.3925 97.0633 30.6871L95.9351 26.3262H90.4517L89.3235 30.6871C89.1668 31.3925 88.9163 31.4246 88.1014 31.4246H84.498C84.498 31.2322 84.5292 30.9758 84.592 30.655L89.7309 11.6401C89.919 10.9349 90.2948 10.8386 91.1097 10.8386H95.3399Z" fill="white"/>
<path d="M109.597 10.7425C113.639 10.7425 115.957 11.1913 115.957 13.0189V14.7828H110.035C108.281 14.7828 107.591 15.3279 107.591 16.354C107.591 19.1437 117.023 18.6625 117.023 25.5244C117.023 28.7953 115.049 31.585 109.314 31.585C105.711 31.585 102.734 31.0717 102.734 29.3083V27.5447H109.534C111.32 27.5447 112.197 26.9674 112.197 25.781C112.197 22.767 102.797 23.2159 102.797 16.2256C102.797 13.1472 104.928 10.7425 109.597 10.7425Z" fill="white"/>
<path d="M124.981 10.7425C129.023 10.7425 131.342 11.1913 131.342 13.0189V14.7828H125.42C123.665 14.7828 122.976 15.3279 122.976 16.354C122.976 19.1437 132.408 18.6625 132.408 25.5244C132.408 28.7953 130.434 31.585 124.699 31.585C121.096 31.585 118.119 31.0717 118.119 29.3083V27.5447H124.919C126.705 27.5447 127.582 26.9674 127.582 25.781C127.582 22.767 118.182 23.2159 118.182 16.2256C118.182 13.1472 120.312 10.7425 124.981 10.7425Z" fill="white"/>
<path d="M134.538 12.6662C134.538 11.512 135.039 10.9026 136.199 10.9026H147.604V13.1472C147.604 14.3017 147.009 14.8468 145.818 14.8468H139.081V19.1114H146.445V22.799H139.081V27.5126H147.761V29.7574C147.761 30.9116 147.166 31.4245 146.006 31.4245H136.199C135.039 31.4245 134.538 30.8153 134.538 29.661V12.6662Z" fill="white"/>
<path d="M153.462 25.9233L171.359 25.9233V23.4656L153.495 23.4656C153.482 23.1818 153.489 17.637 153.453 15.076C153.423 12.8901 154.879 10.764 157.635 10.8108C162.655 10.8963 167.68 10.8959 172.699 10.8069C174.863 10.7683 176.833 12.3942 176.83 15.0389C176.83 15.408 176.827 15.8591 176.827 16.3376L158.913 16.3376V18.7389L176.827 18.7337C176.827 19.0622 176.833 24.6159 176.826 27.1991C176.819 29.7987 175.19 31.4337 172.621 31.4341C167.642 31.4351 162.662 31.4351 157.684 31.4341C155.093 31.4337 153.472 29.7803 153.462 27.1314C153.461 26.7634 153.462 26.3947 153.462 25.9233Z" fill="white"/>
<path d="M165.167 8.24327C163.049 8.2412 161.338 6.4581 161.349 4.26574C161.36 2.11252 163.081 0.361947 165.181 0.366907C167.28 0.370853 168.996 2.13034 169 4.28107C169.004 6.46887 167.286 8.24534 165.167 8.24327Z" fill="white"/>
</g>
<defs>
<clipPath id="clip0_2125_591">
<rect width="177" height="32" fill="white"/>
</clipPath>
</defs>
</svg>
