<svg width="59" height="36" viewBox="0 0 59 36" fill="none" xmlns="http://www.w3.org/2000/svg">
<g clip-path="url(#clip0_2021_1703)">
<path d="M37.4561 3.84839H21.7061V32.1516H37.4561V3.84839Z" fill="#FF5F00"/>
<path d="M22.7061 18C22.701 12.4769 25.2362 7.25836 29.581 3.84844C22.2011 -1.95236 11.6024 -1.10808 5.2339 5.78792C-1.13461 12.6839 -1.13461 23.3162 5.2339 30.2122C11.6024 37.1082 22.2011 37.9524 29.581 32.1516C25.2363 28.7417 22.7011 23.5231 22.7061 18Z" fill="#EB001B"/>
<path d="M58.7037 18C58.7037 24.8914 54.7694 31.1779 48.5711 34.1899C42.3729 37.2018 34.999 36.4103 29.5811 32.1516C33.9218 28.7384 36.456 23.5219 36.456 18C36.456 12.4781 33.9218 7.26162 29.5811 3.84842C34.999 -0.410291 42.3729 -1.20174 48.5711 1.8102C54.7694 4.82214 58.7037 11.1087 58.7037 18Z" fill="#F79E1B"/>
<path d="M56.9864 29.1539V28.5744H57.22V28.4564H56.625V28.5744H56.8587V29.1539H56.9864ZM58.1416 29.1539V28.4552H57.9592L57.7495 28.9357L57.5396 28.4552H57.3571V29.1539H57.4859V28.6269L57.6826 29.0812H57.8162L58.013 28.6257V29.1539H58.1416Z" fill="#F79E1B"/>
</g>
<defs>
<clipPath id="clip0_2021_1703">
<rect width="59" height="36" fill="white"/>
</clipPath>
</defs>
</svg>
