<svg width="24" height="5" viewBox="0 0 24 5" fill="none" xmlns="http://www.w3.org/2000/svg">
<g clip-path="url(#clip0_2151_913)">
<path d="M12.0002 5C13.4729 5 14.6668 3.88071 14.6668 2.5C14.6668 1.11929 13.4729 0 12.0002 0C10.5274 0 9.3335 1.11929 9.3335 2.5C9.3335 3.88071 10.5274 5 12.0002 5Z" fill="white"/>
<path d="M21.3332 5C22.8059 5 23.9998 3.88071 23.9998 2.5C23.9998 1.11929 22.8059 0 21.3332 0C19.8604 0 18.6665 1.11929 18.6665 2.5C18.6665 3.88071 19.8604 5 21.3332 5Z" fill="white"/>
<path d="M2.66667 5C4.13943 5 5.33333 3.88071 5.33333 2.5C5.33333 1.11929 4.13943 0 2.66667 0C1.19391 0 0 1.11929 0 2.5C0 3.88071 1.19391 5 2.66667 5Z" fill="white"/>
</g>
<defs>
<clipPath id="clip0_2151_913">
<rect width="24" height="5" fill="white"/>
</clipPath>
</defs>
</svg>
