<?xml version="1.0" encoding="UTF-8"?>
<svg width="20px" height="18px" viewBox="0 0 20 18" version="1.1" xmlns="http://www.w3.org/2000/svg" xmlns:xlink="http://www.w3.org/1999/xlink">
    <title>people-outline</title>
    <g id="Page-1" stroke="none" stroke-width="1" fill="none" fill-rule="evenodd">
        <g id="people-outline" fill="#2870ED" fill-rule="nonzero">
            <path d="M7,8 C9.209139,8 11,6.209139 11,4 C11,1.790861 9.209139,0 7,0 C4.790861,0 3,1.790861 3,4 C3,6.209139 4.790861,8 7,8 Z M7,2 C8.1045695,2 9,2.8954305 9,4 C9,5.1045695 8.1045695,6 7,6 C5.8954305,6 5,5.1045695 5,4 C5,2.8954305 5.8954305,2 7,2 Z" id="Shape"></path>
            <path d="M15,10 C16.6568542,10 18,8.65685425 18,7 C18,5.34314575 16.6568542,4 15,4 C13.3431458,4 12,5.34314575 12,7 C12,8.65685425 13.3431458,10 15,10 Z M15,6 C15.5522847,6 16,6.44771525 16,7 C16,7.55228475 15.5522847,8 15,8 C14.4477153,8 14,7.55228475 14,7 C14,6.44771525 14.4477153,6 15,6 Z" id="Shape"></path>
            <path d="M15,11 C13.8918254,11.0012275 12.8154578,11.3705693 11.94,12.05 C9.93707721,10.0549375 6.93070952,9.46048445 4.31922658,10.5431344 C1.70774363,11.6257844 0.00382429519,14.1729946 0,17 C0,17.5522847 0.44771525,18 1,18 C1.55228475,18 2,17.5522847 2,17 C2,14.2385763 4.23857625,12 7,12 C9.76142375,12 12,14.2385763 12,17 C12,17.5522847 12.4477153,18 13,18 C13.5522847,18 14,17.5522847 14,17 C14.0023853,15.828431 13.7064211,14.6755471 13.14,13.65 C14.041728,12.9374442 15.2712874,12.8026703 16.3059589,13.3029744 C17.3406303,13.8032785 17.9985429,14.8507189 18,16 C18,16.5522847 18.4477153,17 19,17 C19.5522847,17 20,16.5522847 20,16 C20,13.2385763 17.7614237,11 15,11 L15,11 Z" id="Path"></path>
        </g>
    </g>
</svg>