<svg width="16" height="16" viewBox="0 0 16 16" fill="none" xmlns="http://www.w3.org/2000/svg">
<g clip-path="url(#clip0_2021_1512)">
<path d="M15.3998 3.33998L12.6598 0.599983C11.9195 -0.0953634 10.7756 -0.125466 9.99981 0.529983L0.999813 9.52998C0.676579 9.85595 0.475318 10.2832 0.429813 10.74L-0.000186839 14.91C-0.0274608 15.2065 0.0788501 15.4998 0.289813 15.71C0.478532 15.8972 0.73401 16.0015 0.999813 16H1.08981L5.25981 15.62C5.71661 15.5745 6.14385 15.3732 6.46981 15.05L15.4698 6.04998C16.1971 5.28164 16.1658 4.06975 15.3998 3.33998ZM5.07981 13.62L2.07981 13.9L2.34981 10.9L7.99981 5.31998L10.6998 8.01998L5.07981 13.62ZM11.9998 6.67998L9.31981 3.99998L11.2698 1.99998L13.9998 4.72998L11.9998 6.67998Z" fill="#2870ED"/>
</g>
<defs>
<clipPath id="clip0_2021_1512">
<rect width="16" height="16" fill="white"/>
</clipPath>
</defs>
</svg>
