<svg width="20" height="20" viewBox="0 0 20 20" fill="none" xmlns="http://www.w3.org/2000/svg">
<g clip-path="url(#clip0_2367_753)">
<path d="M17 4.33333H14V2.70833C14 1.21256 12.8807 0 11.5 0H8.5C7.11929 0 6 1.21256 6 2.70833V4.33333H3C1.34315 4.33333 0 5.78841 0 7.58333V16.25C0 18.0449 1.34315 19.5 3 19.5H17C18.6569 19.5 20 18.0449 20 16.25V7.58333C20 5.78841 18.6569 4.33333 17 4.33333ZM8 2.70833C8 2.40918 8.22386 2.16667 8.5 2.16667H11.5C11.7761 2.16667 12 2.40918 12 2.70833V4.33333H8V2.70833ZM18 16.25C18 16.8483 17.5523 17.3333 17 17.3333H3C2.44772 17.3333 2 16.8483 2 16.25V7.58333C2 6.98503 2.44772 6.5 3 6.5H17C17.5523 6.5 18 6.98503 18 7.58333V16.25Z" fill="white"/>
<path d="M10 8.125C8.067 8.125 6.5 9.82259 6.5 11.9167C6.5 14.0107 8.067 15.7083 10 15.7083C11.933 15.7083 13.5 14.0107 13.5 11.9167C13.5 9.82259 11.933 8.125 10 8.125ZM10 13.5417C9.17157 13.5417 8.5 12.8141 8.5 11.9167C8.5 11.0192 9.17157 10.2917 10 10.2917C10.8284 10.2917 11.5 11.0192 11.5 11.9167C11.5 12.8141 10.8284 13.5417 10 13.5417Z" fill="white"/>
</g>
<defs>
<clipPath id="clip0_2367_753">
<rect width="20" height="20" fill="white"/>
</clipPath>
</defs>
</svg>
