<svg width="20" height="20" viewBox="0 0 20 20" fill="none" xmlns="http://www.w3.org/2000/svg">
<path d="M15.4158 2.87501H3.4158L4.7158 1.63876C5.10792 1.26298 5.10792 0.653715 4.7158 0.277932C4.32368 -0.0978522 3.68792 -0.0978522 3.2958 0.277932L0.295798 3.15293C0.106486 3.33287 0 3.57782 0 3.83335C0 4.08888 0.106486 4.33382 0.295798 4.51376L3.2958 7.38876C3.48356 7.57019 3.73916 7.67224 4.0058 7.67224C4.27244 7.67224 4.52803 7.57019 4.7158 7.38876C4.90511 7.20882 5.0116 6.96388 5.0116 6.70835C5.0116 6.45282 4.90511 6.20787 4.7158 6.02793L3.4158 4.79168H15.4158C15.8296 4.78398 16.2296 4.93415 16.5278 5.20914C16.826 5.48414 16.9979 5.86141 17.0058 6.25793V8.62502C17.0058 9.15429 17.4535 9.58335 18.0058 9.58335C18.5581 9.58335 19.0058 9.15429 19.0058 8.62502V6.25793C18.9979 5.35309 18.6152 4.48833 17.9419 3.8539C17.2687 3.21948 16.36 2.86736 15.4158 2.87501Z" fill="white"/>
<path d="M15.7159 11.778C15.3237 11.4022 14.688 11.4022 14.2959 11.778C13.9037 12.1537 13.9037 12.763 14.2959 13.1388L15.5959 14.375H3.59586C3.1821 14.3827 2.7821 14.2326 2.4839 13.9576C2.1857 13.6826 2.01374 13.3053 2.00586 12.9088V10.5417C2.00586 10.0124 1.55814 9.58337 1.00586 9.58337C0.453575 9.58337 0.00585938 10.0124 0.00585938 10.5417V12.9088C0.0137824 13.8136 0.396473 14.6784 1.06974 15.3128C1.743 15.9472 2.65168 16.2994 3.59586 16.2917H15.5959L14.2959 17.528C14.1065 17.7079 14.0001 17.9528 14.0001 18.2084C14.0001 18.4639 14.1065 18.7088 14.2959 18.8888C14.4836 19.0702 14.7392 19.1723 15.0059 19.1723C15.2725 19.1723 15.5281 19.0702 15.7159 18.8888L18.7159 16.0138C18.9052 15.8338 19.0117 15.5889 19.0117 15.3334C19.0117 15.0778 18.9052 14.8329 18.7159 14.653L15.7159 11.778Z" fill="white"/>
</svg>
