<?xml version="1.0" encoding="UTF-8"?>
<svg width="20px" height="21px" viewBox="0 0 20 21" version="1.1" xmlns="http://www.w3.org/2000/svg" xmlns:xlink="http://www.w3.org/1999/xlink">
    <title>6488154a2569738adc614fe9_repeat-outline</title>
    <g id="Page-1" stroke="none" stroke-width="1" fill="none" fill-rule="evenodd">
        <g id="6488154a2569738adc614fe9_repeat-outline" fill="#2870ED" fill-rule="nonzero">
            <path d="M15.91,3 L3.91,3 L5.21,1.71 C5.60212217,1.31787783 5.60212217,0.682122172 5.21,0.29 C4.81787783,-0.102122172 4.18212217,-0.102122172 3.79,0.29 L0.79,3.29 C0.600687349,3.4777666 0.494201676,3.73336246 0.494201676,4 C0.494201676,4.26663754 0.600687349,4.5222334 0.79,4.71 L3.79,7.71 C3.9777666,7.89931265 4.23336246,8.00579832 4.5,8.00579832 C4.76663754,8.00579832 5.0222334,7.89931265 5.21,7.71 C5.39931265,7.5222334 5.50579832,7.26663754 5.50579832,7 C5.50579832,6.73336246 5.39931265,6.4777666 5.21,6.29 L3.91,5 L15.91,5 C16.3237597,4.99196655 16.7237565,5.14866717 17.0219562,5.4356141 C17.320156,5.72256103 17.4921196,6.11623735 17.5,6.53 L17.5,9 C17.5,9.55228475 17.9477153,10 18.5,10 C19.0522847,10 19.5,9.55228475 19.5,9 L19.5,6.53 C19.4920769,5.58581874 19.1093866,4.68345994 18.4361236,4.02144932 C17.7628607,3.3594387 16.8541807,2.99200989 15.91,3 Z" id="Path"></path>
            <path d="M16.21,12.29 C15.8178778,11.8978778 15.1821222,11.8978778 14.79,12.29 C14.3978778,12.6821222 14.3978778,13.3178778 14.79,13.71 L16.09,15 L4.09,15 C3.6762403,15.0080335 3.27624351,14.8513328 2.97804376,14.5643859 C2.67984401,14.277439 2.50788044,13.8837626 2.5,13.47 L2.5,11 C2.5,10.4477153 2.05228475,10 1.5,10 C0.94771525,10 0.5,10.4477153 0.5,11 L0.5,13.47 C0.507923056,14.4141813 0.890613424,15.3165401 1.56387635,15.9785507 C2.23713928,16.6405613 3.1458193,17.0079901 4.09,17 L16.09,17 L14.79,18.29 C14.6006873,18.4777666 14.4942017,18.7333625 14.4942017,19 C14.4942017,19.2666375 14.6006873,19.5222334 14.79,19.71 C14.9777666,19.8993127 15.2333625,20.0057983 15.5,20.0057983 C15.7666375,20.0057983 16.0222334,19.8993127 16.21,19.71 L19.21,16.71 C19.3993127,16.5222334 19.5057983,16.2666375 19.5057983,16 C19.5057983,15.7333625 19.3993127,15.4777666 19.21,15.29 L16.21,12.29 Z" id="Path"></path>
        </g>
    </g>
</svg>