<?xml version="1.0" encoding="UTF-8"?>
<svg width="16px" height="20px" viewBox="0 0 16 20" version="1.1" xmlns="http://www.w3.org/2000/svg" xmlns:xlink="http://www.w3.org/1999/xlink">
    <title>file-text-outline</title>
    <g id="Page-1" stroke="none" stroke-width="1" fill="none" fill-rule="evenodd">
        <g id="file-text-outline" fill="#444444" fill-rule="nonzero">
            <path d="M11,14 L5,14 C4.44771525,14 4,14.4477153 4,15 C4,15.5522847 4.44771525,16 5,16 L11,16 C11.5522847,16 12,15.5522847 12,15 C12,14.4477153 11.5522847,14 11,14 Z" id="Path"></path>
            <path d="M5,12 L8,12 C8.55228475,12 9,11.5522847 9,11 C9,10.4477153 8.55228475,10 8,10 L5,10 C4.44771525,10 4,10.4477153 4,11 C4,11.5522847 4.44771525,12 5,12 Z" id="Path"></path>
            <path d="M15.74,6.33 L10.3,0.33 C10.1109408,0.120520558 9.84217824,0.000666963756 9.56,-0.000180200686 L2.56,-0.000180200686 C1.88898838,-0.00800384008 1.24228504,0.250902875 0.762181568,0.719753926 C0.282078092,1.18860498 0.00790949226,1.82898726 0,2.5 L0,17.5 C0.00790949226,18.1710127 0.282078092,18.811395 0.762181568,19.2802461 C1.24228504,19.7490971 1.88898838,20.0080038 2.56,20.0001802 L13.44,20.0001802 C14.1110116,20.0080038 14.757715,19.7490971 15.2378184,19.2802461 C15.7179219,18.811395 15.9920905,18.1710127 16,17.5 L16,7 C15.999353,6.75216417 15.9066976,6.5133983 15.74,6.33 Z M10,3 L12.74,6 L10.74,6 C10.5284614,5.9872289 10.330924,5.8900018 10.1917711,5.73016398 C10.0526182,5.57032615 9.98351937,5.36128194 10,5.15 L10,3 Z M13.44,18 L2.56,18 C2.41937907,18.0081857 2.28128394,17.9600569 2.17621192,17.8662426 C2.07113991,17.7724283 2.0077351,17.6406464 2,17.5 L2,2.5 C2.0077351,2.35935356 2.07113991,2.22757166 2.17621192,2.13375736 C2.28128394,2.03994305 2.41937907,1.99181431 2.56,2 L8,2 L8,5.15 C7.96639559,6.6834004 9.17685156,7.95638915 10.71,8 L14,8 L14,17.5 C13.9922649,17.6406464 13.9288601,17.7724283 13.8237881,17.8662426 C13.7187161,17.9600569 13.5806209,18.0081857 13.44,18 L13.44,18 Z" id="Shape"></path>
        </g>
    </g>
</svg>