<svg width="24" height="16" viewBox="0 0 24 16" fill="none" xmlns="http://www.w3.org/2000/svg">
<path d="M13.4 13.3333C14.0996 13.3333 14.6667 13.9004 14.6667 14.6V14.7333C14.6667 15.4329 14.0996 16 13.4 16H1.26667C0.567106 16 0 15.4329 0 14.7333V14.6C0 13.9004 0.567106 13.3333 1.26667 13.3333H13.4ZM22.7333 6.66667C23.4329 6.66667 24 7.23377 24 7.93333V8.06667C24 8.76623 23.4329 9.33333 22.7333 9.33333H1.26667C0.567106 9.33333 0 8.76623 0 8.06667V7.93333C0 7.23377 0.567106 6.66667 1.26667 6.66667H22.7333ZM22.7333 0C23.4329 0 24 0.567106 24 1.26667V1.4C24 2.09956 23.4329 2.66667 22.7333 2.66667H1.26667C0.567106 2.66667 0 2.09956 0 1.4V1.26667C0 0.567106 0.567106 0 1.26667 0H22.7333Z" fill="#444444"/>
</svg>
