<svg width="23" height="16" viewBox="0 0 23 16" fill="none" xmlns="http://www.w3.org/2000/svg">
<path d="M19.55 0C21.4554 0 23 1.53502 23 3.42857V12.5714C23 14.465 21.4554 16 19.55 16H3.45C1.54462 16 0 14.465 0 12.5714V3.42857C0 1.53502 1.54462 0 3.45 0H19.55ZM20.7 6.85714H2.3V12.5714C2.3 13.2026 2.81487 13.7143 3.45 13.7143H19.55C20.1851 13.7143 20.7 13.2026 20.7 12.5714V6.85714ZM10.35 9.14286C10.9851 9.14286 11.5 9.65453 11.5 10.2857C11.5 10.9169 10.9851 11.4286 10.35 11.4286H5.75C5.11487 11.4286 4.6 10.9169 4.6 10.2857C4.6 9.65453 5.11487 9.14286 5.75 9.14286H10.35ZM17.25 9.14286C17.8851 9.14286 18.4 9.65453 18.4 10.2857C18.4 10.9169 17.8851 11.4286 17.25 11.4286H14.95C14.3149 11.4286 13.8 10.9169 13.8 10.2857C13.8 9.65453 14.3149 9.14286 14.95 9.14286H17.25ZM19.55 2.28571H3.45C2.81487 2.28571 2.3 2.79739 2.3 3.42857V4.57143H20.7V3.42857C20.7 2.79739 20.1851 2.28571 19.55 2.28571Z" fill="#444444"/>
</svg>
