<?xml version="1.0" encoding="UTF-8"?>
<svg width="22px" height="21px" viewBox="0 0 22 21" version="1.1" xmlns="http://www.w3.org/2000/svg" xmlns:xlink="http://www.w3.org/1999/xlink">
    <title>accounts</title>
    <g id="Page-1" stroke="none" stroke-width="1" fill="none" fill-rule="evenodd">
        <g id="accounts" fill="#444444" fill-rule="nonzero">
            <path d="M20.8421053,4.99333333 L20.8421053,2.33333333 C20.8421053,1.05 19.8,0 18.5263158,0 L2.31578947,0 C1.03052632,0 0,1.05 0,2.33333333 L0,18.6666667 C0,19.95 1.03052632,21 2.31578947,21 L18.5263158,21 C19.8,21 20.8421053,19.95 20.8421053,18.6666667 L20.8421053,16.0066667 C21.5252632,15.5983333 22,14.8633333 22,14 L22,7 C22,6.13666667 21.5252632,5.40166667 20.8421053,4.99333333 Z M19.6842105,7 L19.6842105,14 L11.5789474,14 L11.5789474,7 L19.6842105,7 Z M2.31578947,18.6666667 L2.31578947,2.33333333 L18.5263158,2.33333333 L18.5263158,4.66666667 L11.5789474,4.66666667 C10.3052632,4.66666667 9.26315789,5.71666667 9.26315789,7 L9.26315789,14 C9.26315789,15.2833333 10.3052632,16.3333333 11.5789474,16.3333333 L18.5263158,16.3333333 L18.5263158,18.6666667 L2.31578947,18.6666667 Z"></path>
        </g>
    </g>
</svg>