<?xml version="1.0" encoding="UTF-8"?>
<svg width="20px" height="14px" viewBox="0 0 20 14" version="1.1" xmlns="http://www.w3.org/2000/svg" xmlns:xlink="http://www.w3.org/1999/xlink">
    <title>63c8fc17dd02fa64d0accec6_cards</title>
    <g id="Page-1" stroke="none" stroke-width="1" fill="none" fill-rule="evenodd">
        <g id="63c8fc17dd02fa64d0accec6_cards" fill="#444444" fill-rule="nonzero">
            <path d="M17,0 C18.6568542,0 20,1.34314575 20,3 L20,3 L20,11 C20,12.6568542 18.6568542,14 17,14 L17,14 L3,14 C1.34314575,14 0,12.6568542 0,11 L0,11 L0,3 C0,1.34314575 1.34314575,0 3,0 L3,0 L17,0 Z M18,6 L2,6 L2,11 C2,11.5522847 2.44771525,12 3,12 L3,12 L17,12 C17.5522847,12 18,11.5522847 18,11 L18,11 L18,6 Z M9,8 C9.5522847,8 10,8.4477153 10,9 C10,9.5522847 9.5522847,10 9,10 L9,10 L5,10 C4.44771525,10 4,9.5522847 4,9 C4,8.4477153 4.44771525,8 5,8 L5,8 L9,8 Z M15,8 C15.5522847,8 16,8.4477153 16,9 C16,9.5522847 15.5522847,10 15,10 L15,10 L13,10 C12.4477153,10 12,9.5522847 12,9 C12,8.4477153 12.4477153,8 13,8 L13,8 L15,8 Z M17,2 L3,2 C2.44771525,2 2,2.44771525 2,3 L2,3 L2,4 L18,4 L18,3 C18,2.44771525 17.5522847,2 17,2 L17,2 Z" id="Combined-Shape"></path>
        </g>
    </g>
</svg>