<?xml version="1.0" encoding="UTF-8"?>
<svg width="18px" height="19px" viewBox="0 0 18 19" version="1.1" xmlns="http://www.w3.org/2000/svg" xmlns:xlink="http://www.w3.org/1999/xlink">
    <title>e_invoices</title>
    <g id="Page-1" stroke="none" stroke-width="1" fill="none" fill-rule="evenodd">
        <g id="e_invoices" fill="#444444" fill-rule="nonzero">
            <g id="e-invoices" transform="translate(0.000000, 1.000000)">
                <path d="M17.79,8.34 L14.45,1.66 C13.9412026,0.640842397 12.8991014,-0.00223863034 11.76,-5.82580506e-06 L6.24,-5.82580506e-06 C5.10089859,-0.00223863034 4.05879741,0.640842397 3.55,1.66 L0.21,8.34 C0.0706962713,8.61949098 -0.00122366823,8.92771929 -1.53570447e-05,9.24 L-1.53570447e-05,14.9999942 C-1.53570447e-05,16.6568542 1.34314575,17.9999942 3,17.9999942 L15,17.9999942 C16.6568542,17.9999942 18.0000154,16.6568542 18.0000154,14.9999942 L18.0000154,9.24 C18.0012237,8.92771929 17.9293037,8.61949098 17.79,8.34 Z M5.34,2.55 C5.51106553,2.2104962 5.85984313,1.99735433 6.24,1.99997565 L11.76,1.99997565 C12.1401569,1.99735433 12.4889345,2.2104962 12.66,2.55 L15.38,8 L13,8 C12.4477153,8 12,8.44771525 12,9 L12,12 L6,12 L6,9 C6,8.44771525 5.55228475,8 5,8 L2.62,8 L5.34,2.55 Z M15,16 L3,16 C2.44771525,16 2,15.5522847 2,15 L2,10 L4,10 L4,13 C4,13.5522847 4.44771525,14 5,14 L13,14 C13.5522847,14 14,13.5522847 14,13 L14,10 L16,10 L16,15 C16,15.5522847 15.5522847,16 15,16 Z" id="Shape"></path>
            </g>
            <path d="M9.10120739,10.1065341 C9.7759233,10.1065341 10.3299006,9.95501894 10.7631392,9.65198864 C11.1963778,9.34895833 11.4662642,8.94412879 11.5727983,8.4375 L11.5727983,8.4375 L10.1736506,8.34517045 C10.097893,8.55350379 9.96768466,8.7109375 9.78302557,8.81747159 C9.59836648,8.92400568 9.37937973,8.97727273 9.12606534,8.97727273 C8.74727746,8.97727273 8.44661458,8.86008523 8.2240767,8.62571023 C8.00153883,8.39133523 7.89026989,8.07054924 7.89026989,7.66335227 L7.89026989,7.66335227 L7.89026989,7.65980114 L11.6047585,7.65980114 L11.6047585,7.24431818 C11.6047585,6.62642045 11.4911222,6.11209754 11.2638494,5.70134943 C11.0365767,5.29060133 10.7294034,4.98342803 10.3423295,4.77982955 C9.95525568,4.57623106 9.52142519,4.47443182 9.04083807,4.47443182 C8.50580019,4.47443182 8.04000947,4.59280303 7.64346591,4.82954545 C7.24692235,5.06628788 6.93974905,5.39654356 6.72194602,5.8203125 C6.50414299,6.24408144 6.39524148,6.73650568 6.39524148,7.29758523 C6.39524148,7.87286932 6.50414299,8.37062027 6.72194602,8.79083807 C6.93974905,9.21105587 7.25106534,9.53539299 7.65589489,9.76384943 C8.06072443,9.99230587 8.54249527,10.1065341 9.10120739,10.1065341 Z M10.1807528,6.72230114 L7.89026989,6.72230114 C7.90684186,6.41216856 8.02284564,6.14820076 8.23828125,5.93039773 C8.45371686,5.7125947 8.72952178,5.60369318 9.06569602,5.60369318 C9.39476799,5.60369318 9.66228693,5.70904356 9.86825284,5.91974432 C10.0742187,6.13044508 10.1783854,6.39796402 10.1807528,6.72230114 L10.1807528,6.72230114 Z" id="e"></path>
        </g>
    </g>
</svg>