<?xml version="1.0" encoding="UTF-8"?>
<svg width="20px" height="20px" viewBox="0 0 20 20" version="1.1" xmlns="http://www.w3.org/2000/svg" xmlns:xlink="http://www.w3.org/1999/xlink">
    <title>Group 6</title>
    <g id="Page-1" stroke="none" stroke-width="1" fill="none" fill-rule="evenodd">
        <g id="sent_payments" transform="translate(-10.000000, -55.000000)" fill="#444444" fill-rule="nonzero">
            <g id="Group-6" transform="translate(10.000000, 55.000000)">
                <path d="M10,0 C4.4771525,0 0,4.4771525 0,10 C0,15.5228475 4.4771525,20 10,20 C15.5228475,20 20,15.5228475 20,10 C20,7.3478351 18.9464316,4.80429597 17.0710678,2.92893219 C15.195704,1.0535684 12.6521649,0 10,0 Z M10,18 C5.581722,18 2,14.418278 2,10 C2,5.581722 5.581722,2 10,2 C14.418278,2 18,5.581722 18,10 C18,12.1217319 17.1571453,14.1565632 15.6568542,15.6568542 C14.1565632,17.1571453 12.1217319,18 10,18 Z" id="Shape"></path>
                <g id="flik_logo" transform="translate(6.000000, 5.000000)">
                    <path d="M2.40216069,2.77465051 L2.40216069,3.57411005 L0.177718996,3.57411005 L0.177718996,4.57722229 L2.40216069,4.57722229 L2.40216069,5.74408912 L0.177615094,5.74408912 L0.177615094,6.7472258 L2.40216069,6.7472258 L2.40216069,10.8432175 L3.63754127,10.8432175 L3.63754127,6.7472258 L6.39970897,6.7472258 L6.39970897,5.74408912 L3.63754127,5.74408912 L3.63754127,4.57722229 L6.39983732,4.57722229 L6.39983732,3.57411005 L3.63754127,3.57411005 L3.63754127,2.8620193 C3.63754127,1.7569982 4.03002545,1.37905409 5.13501599,1.37905409 C5.55900171,1.38480913 5.98188882,1.42369909 6.39983732,1.49536857 L6.39983732,0.404893654 C5.98479512,0.310356532 5.56065997,0.261626752 5.13501599,0.259578491 C3.33241977,0.259578491 2.40216069,1.11740001 2.40216069,2.77465051 Z" id="Path"></path>
                </g>
            </g>
        </g>
    </g>
</svg>