<?xml version="1.0" encoding="UTF-8"?>
<svg width="16px" height="20px" viewBox="0 0 16 20" version="1.1" xmlns="http://www.w3.org/2000/svg" xmlns:xlink="http://www.w3.org/1999/xlink">
    <title>Group 25</title>
    <g id="Page-1" stroke="none" stroke-width="1" fill="none" fill-rule="evenodd">
        <g id="Group-25" fill="#444444" fill-rule="nonzero">
            <g id="smartphone-outline">
                <path d="M13,0 L3,0 C1.34314575,0 0,1.34314575 0,3 L0,17 C0,18.6568542 1.34314575,20 3,20 L13,20 C14.6568542,20 16,18.6568542 16,17 L16,3 C16,1.34314575 14.6568542,0 13,0 Z M14,17 C14,17.5522847 13.5522847,18 13,18 L3,18 C2.44771525,18 2,17.5522847 2,17 L2,3 C2,2.44771525 2.44771525,2 3,2 L13,2 C13.5522847,2 14,2.44771525 14,3 L14,17 Z" id="Shape"></path>
                <path d="M10.5,12 L5.5,12 C4.94771525,12 4.5,12.4477153 4.5,13 C4.5,13.5522847 4.94771525,14 5.5,14 L10.5,14 C11.0522847,14 11.5,13.5522847 11.5,13 C11.5,12.4477153 11.0522847,12 10.5,12 Z" id="Path"></path>
                <path d="M10.5,6 L5.5,6 C4.94771525,6 4.5,6.44771525 4.5,7 C4.5,7.55228475 4.94771525,8 5.5,8 L10.5,8 C11.0522847,8 11.5,7.55228475 11.5,7 C11.5,6.44771525 11.0522847,6 10.5,6 Z" id="Path"></path>
            </g>
        </g>
    </g>
</svg>