<?xml version="1.0" encoding="UTF-8"?>
<svg width="20px" height="18px" viewBox="0 0 20 18" version="1.1" xmlns="http://www.w3.org/2000/svg" xmlns:xlink="http://www.w3.org/1999/xlink">
    <title>camera_ico</title>
    <g id="Page-1" stroke="none" stroke-width="1" fill="none" fill-rule="evenodd">
        <g id="camera_ico" fill="#444444" fill-rule="nonzero">
            <path d="M17,4 L14,4 L14,2.5 C14,1.11928813 12.8807119,0 11.5,0 L8.5,0 C7.11928813,0 6,1.11928813 6,2.5 L6,4 L3,4 C1.34314575,4 0,5.34314575 0,7 L0,15 C0,16.6568542 1.34314575,18 3,18 L17,18 C18.6568542,18 20,16.6568542 20,15 L20,7 C20,5.34314575 18.6568542,4 17,4 Z M8,2.5 C8,2.22385763 8.22385763,2 8.5,2 L11.5,2 C11.7761424,2 12,2.22385763 12,2.5 L12,4 L8,4 L8,2.5 Z M18,15 C18,15.5522847 17.5522847,16 17,16 L3,16 C2.44771525,16 2,15.5522847 2,15 L2,7 C2,6.44771525 2.44771525,6 3,6 L17,6 C17.5522847,6 18,6.44771525 18,7 L18,15 Z" id="Shape"></path>
            <path d="M10,7.5 C8.06700338,7.5 6.5,9.06700338 6.5,11 C6.5,12.9329966 8.06700338,14.5 10,14.5 C11.9329966,14.5 13.5,12.9329966 13.5,11 C13.5,9.06700338 11.9329966,7.5 10,7.5 L10,7.5 Z M10,12.5 C9.17157288,12.5 8.5,11.8284271 8.5,11 C8.5,10.1715729 9.17157288,9.5 10,9.5 C10.8284271,9.5 11.5,10.1715729 11.5,11 C11.5,11.8284271 10.8284271,12.5 10,12.5 L10,12.5 Z" id="Shape"></path>
        </g>
    </g>
</svg>