<?xml version="1.0" encoding="UTF-8"?>
<svg width="21px" height="21px" viewBox="0 0 21 21" version="1.1" xmlns="http://www.w3.org/2000/svg" xmlns:xlink="http://www.w3.org/1999/xlink">
    <title>paper-plane-outline</title>
    <g id="Page-1" stroke="none" stroke-width="1" fill="none" fill-rule="evenodd">
        <g id="paper-plane-outline" fill="#444444" fill-rule="nonzero">
            <path d="M20,2 C19.9895837,1.9081349 19.9694716,1.81763058 19.94,1.73 L19.94,1.64 C19.8920606,1.5287082 19.8242927,1.42705625 19.74,1.34 C19.6551332,1.26026482 19.5569919,1.19596534 19.45,1.15 L19.36,1.15 C19.2678371,1.07961009 19.1623899,1.02858725 19.05,1 L19,1 C18.9005689,0.984914662 18.7994311,0.984914662 18.7,1 L0.7,7 C0.289625464,7.13488359 0.0122498999,7.5180268 0.0122498999,7.95 C0.0122498999,8.3819732 0.289625464,8.76511641 0.7,8.9 L9.23,11.74 L12.07,20.27 C12.2048836,20.6803745 12.5880268,20.9577501 13.02,20.9577501 C13.4519732,20.9577501 13.8351164,20.6803745 13.97,20.27 L19.97,2.27 C19.9922351,2.18178363 20.0023282,2.09094563 20,2 Z M15.3,4.29 L9.73,9.86 L4.16,8 L15.3,4.29 Z M13,16.84 L11.14,11.27 L16.71,5.7 L13,16.84 Z" id="Shape"></path>
        </g>
    </g>
</svg>