<?xml version="1.0" encoding="UTF-8"?>
<svg width="18px" height="20px" viewBox="0 0 18 20" version="1.1" xmlns="http://www.w3.org/2000/svg" xmlns:xlink="http://www.w3.org/1999/xlink">
    <title>date</title>
    <g id="Page-1" stroke="none" stroke-width="1" fill="none" fill-rule="evenodd">
        <g id="date" fill="#444444" fill-rule="nonzero">
            <path d="M15,2 L14,2 L14,1 C14,0.44771525 13.5522847,0 13,0 C12.4477153,0 12,0.44771525 12,1 L12,2 L6,2 L6,1 C6,0.44771525 5.55228475,0 5,0 C4.44771525,0 4,0.44771525 4,1 L4,2 L3,2 C1.34314575,2 0,3.34314575 0,5 L0,17 C0,18.6568542 1.34314575,20 3,20 L15,20 C16.6568542,20 18,18.6568542 18,17 L18,5 C18,3.34314575 16.6568542,2 15,2 Z M3,4 L4,4 L4,5 C4,5.55228475 4.44771525,6 5,6 C5.55228475,6 6,5.55228475 6,5 L6,4 L12,4 L12,5 C12,5.55228475 12.4477153,6 13,6 C13.5522847,6 14,5.55228475 14,5 L14,4 L15,4 C15.5522847,4 16,4.44771525 16,5 L16,9 L2,9 L2,5 C2,4.44771525 2.44771525,4 3,4 Z M15,18 L3,18 C2.44771525,18 2,17.5522847 2,17 L2,11 L16,11 L16,17 C16,17.5522847 15.5522847,18 15,18 Z" id="Shape"></path>
            <circle id="Oval" cx="5" cy="14" r="1"></circle>
            <path d="M13,13 L9,13 C8.44771525,13 8,13.4477153 8,14 C8,14.5522847 8.44771525,15 9,15 L13,15 C13.5522847,15 14,14.5522847 14,14 C14,13.4477153 13.5522847,13 13,13 Z" id="Path"></path>
        </g>
    </g>
</svg>